<svg width="47" height="49" viewBox="0 0 47 49" fill="none" xmlns="http://www.w3.org/2000/svg">
<path d="M34.8036 44.9636L22.3002 26.7973L20.5197 24.2113L6.01099 3.13152H12.252L23.9853 20.1793L25.7657 22.7652L41.0445 44.9636H34.8036ZM43.6246 43.1891L27.8765 20.3102L26.0961 17.7227L14.8309 1.35664L13.8972 0.000346357H0.0546875L3.43065 4.90601L18.409 26.6691L20.1895 29.2539L32.2243 46.74L33.1581 48.0947H47.0007L43.6246 43.1891Z" fill="white"/>
<path d="M20.5191 24.2113L22.2996 26.7973L20.1889 29.2539L3.99365 48.0947H0L18.4083 26.6691L20.5191 24.2113Z" fill="white"/>
<path d="M45.3332 -0.000240097L27.8756 20.3096L25.7648 22.7646L23.9844 20.1787L26.0952 17.7221L37.9207 3.95784L41.3395 -0.000240097H45.3332Z" fill="white"/>
</svg>
