<svg width="55" height="46" viewBox="0 0 55 46" fill="none" xmlns="http://www.w3.org/2000/svg">
<path d="M54.8918 0.993853C54.6947 0.405264 54.4595 0.250372 54.092 0.103225C53.2884 -0.198815 51.9272 0.258117 51.9272 0.258117C51.9272 0.258117 3.73715 17.8229 0.984094 19.7668C0.391315 20.185 0.192711 20.4328 0.0941692 20.7193C-0.381734 22.0979 1.10097 22.7097 1.10097 22.7097L13.5218 26.8143C13.5218 26.8143 13.9847 26.884 14.1497 26.7756C16.9754 24.9634 42.5787 8.57581 44.0553 8.02594C44.2883 7.95624 44.4609 8.03369 44.4151 8.19633C43.8238 10.3029 21.5862 30.3381 21.5862 30.3381C21.5862 30.3381 21.5014 30.4465 21.448 30.5705L21.4189 30.555L20.2601 43.047C20.2601 43.047 19.7743 46.8728 23.5487 43.047C26.2116 40.3441 28.7882 38.0827 30.0776 36.9907C34.3485 39.9801 38.9448 43.2871 40.9287 45.0141C41.9248 45.8815 42.7582 46.0209 43.4442 45.9977C45.3272 45.928 45.8527 43.8292 45.8527 43.8292C45.8527 43.8292 54.6344 7.99497 54.9277 3.19332C54.9567 2.7209 54.9965 2.4266 54.9995 2.10132C55.0049 1.65214 54.9636 1.20296 54.8918 0.993853Z" fill="white"/>
</svg>
